<svg width="31" height="30" viewBox="0 0 31 30" fill="none" xmlns="http://www.w3.org/2000/svg">
<path d="M22.6264 15.6943C22.6143 13.6963 23.5497 12.1904 25.4388 11.0801C24.3822 9.61523 22.7838 8.80957 20.6768 8.6543C18.6817 8.50195 16.499 9.7793 15.6998 9.7793C14.8552 9.7793 12.9237 8.70703 11.404 8.70703C8.26768 8.75391 4.93457 11.127 4.93457 15.9551C4.93457 17.3818 5.204 18.8555 5.74287 20.373C6.46338 22.3711 9.06084 27.2666 11.7703 27.1875C13.1871 27.1553 14.1892 26.2148 16.0328 26.2148C17.822 26.2148 18.7483 27.1875 20.3286 27.1875C23.0623 27.1494 25.4115 22.6992 26.0957 20.6953C22.4296 19.0225 22.6264 15.7969 22.6264 15.6943ZM19.4446 6.75879C20.9795 4.99512 20.8402 3.38965 20.7948 2.8125C19.4386 2.88867 17.8704 3.70605 16.9773 4.71094C15.9935 5.78906 15.4152 7.12207 15.5394 8.625C17.0046 8.7334 18.3427 8.00391 19.4446 6.75879Z" fill="#699BF7"/>
</svg>
