<svg width="24" height="26" viewBox="0 0 24 26" fill="none" xmlns="http://www.w3.org/2000/svg">
<g clip-path="url(#clip0_40_1843)">
<path fill-rule="evenodd" clip-rule="evenodd" d="M0 13.0726C0 19.5358 4.333 24.9102 10 26V16.6108H7V13H10V10.1108C10 6.86075 11.933 5.05592 14.667 5.05592C15.533 5.05592 16.467 5.2 17.333 5.34408V8.66667H15.8C14.333 8.66667 14 9.46075 14 10.4726V13H17.2L16.667 16.6108H14V26C19.667 24.9102 24 19.5368 24 13.0726C24 5.8825 18.6 0 12 0C5.4 0 0 5.8825 0 13.0726Z" fill="#699BF7"/>
</g>
<defs>
<clipPath id="clip0_40_1843">
<rect width="24" height="26" fill="white"/>
</clipPath>
</defs>
</svg>
