<svg width="29" height="28" viewBox="0 0 29 28" fill="none" xmlns="http://www.w3.org/2000/svg">
<path d="M25.9256 11.8464C26.0742 12.6152 26.1551 13.419 26.1551 14.2579C26.1551 20.8192 21.607 25.4847 14.7376 25.4847C13.1754 25.4852 11.6284 25.1884 10.1851 24.6114C8.74172 24.0344 7.43026 23.1885 6.32563 22.122C5.221 21.0554 4.34485 19.7892 3.74724 18.3956C3.14964 17.002 2.8423 15.5084 2.84277 14C2.8423 12.4917 3.14964 10.9981 3.74724 9.60451C4.34485 8.21092 5.221 6.94468 6.32563 5.87814C7.43026 4.8116 8.74172 3.96566 10.1851 3.38866C11.6284 2.81167 13.1754 2.51492 14.7376 2.51538C17.9494 2.51538 20.6331 3.65638 22.6921 5.50905L19.3389 8.74655V8.73838C18.0907 7.59038 16.5066 7.00121 14.7376 7.00121C10.8129 7.00121 7.62294 10.2025 7.62294 13.993C7.62294 17.7824 10.8129 20.9907 14.7376 20.9907C18.2986 20.9907 20.7225 19.0249 21.2203 16.3252H14.7376V11.8464H25.9268H25.9256Z" fill="#699BF7"/>
</svg>
